<svg width="179" height="156" viewBox="0 0 179 156" fill="none" xmlns="http://www.w3.org/2000/svg">
    <path
        d="M110.132 26.5449C112.848 17.1564 114.66 10.8485 117.092 3.16676C103.221 0.339961 100.335 0 88.3669 0C71.9541 0 57.9227 2.71037 46.2726 8.13111C34.6224 13.5519 24.9246 20.9115 17.1791 30.2099C9.45692 39.4991 4.29791 49.569 1.70208 60.4198C1.22096 62.413 0.844282 64.4299 0.573597 66.4623C-0.0610267 70.772 -0.169071 75.1428 0.251839 79.4786C0.831625 85.6165 2.47306 90.9301 5.17614 95.4195C7.88077 99.9181 11.7419 103.453 16.7944 106.089C21.8469 108.725 26.6243 109.786 33.4792 110.978C40.334 112.171 48.3104 112.264 55.7458 112.264C59.6721 112.264 64.6058 111.838 69.5534 111.514C67.9213 117.335 60.2644 143.731 56.7297 156.005L72.1507 155.853L93.6666 155.604L117.621 155.311C125.187 155.222 130.489 155.155 133.45 154.705C137.232 154.085 140.927 153.018 144.455 151.525C148.158 149.955 151.32 148.092 153.917 145.908C157.053 143.288 159.738 140.171 161.865 136.683C164.064 133.152 165.673 129.287 166.629 125.241C167.311 122.502 167.582 119.677 167.433 116.858C167.314 114.366 166.679 111.926 165.568 109.691C164.587 107.669 163.182 105.882 161.448 104.452C159.982 103.207 158.33 102.199 156.552 101.464C154.943 100.852 152.753 100.3 149.953 99.8343C152.501 99.2021 155.006 98.4072 157.452 97.4546C159.598 96.5294 161.648 95.3962 163.572 94.0713C165.825 92.5171 167.887 90.7049 169.718 88.6715C171.738 86.4206 173.469 83.9261 174.868 81.2459C175.321 80.41 175.706 79.5741 176.093 78.7079C176.946 76.7023 177.624 74.6269 178.119 72.5047C179.051 68.6161 179.247 64.9511 178.699 61.5445C178.217 58.5563 177.155 55.9856 175.512 53.8325C174.034 52.0326 172.015 50.4888 169.431 49.2687C166.848 48.0485 163.703 47.173 160.002 46.7073C157.204 46.3534 77.7908 47.5875 72.9318 47.6713C71.9339 51.1361 71.2134 53.8744 70.6002 55.8979C69.987 57.9214 69.572 59.4326 69.2806 60.4944L66.3941 70.2205L81.512 70.0435C80.7403 72.9681 75.9745 89.1372 75.9745 89.1372H58.8864C53.0295 89.1372 48.9096 88.8787 44.6638 86.6294C40.418 84.3801 37.7716 81.0853 36.5848 76.7799C35.8465 74.0152 35.6211 70.9935 35.9087 67.715C36.0658 65.8204 36.3674 63.9405 36.811 62.0917C38.1228 56.6362 40.3287 51.4349 43.3394 46.698C46.4229 41.8414 50.3746 37.5926 54.9973 34.1637C59.7072 30.6453 65.0176 28.0102 70.6702 26.3865C76.41 24.7175 82.3584 23.8731 88.3366 23.8787C90.6215 23.8787 93.1964 24.0076 96.0611 24.2653C98.9258 24.523 101.919 24.9405 105.04 25.518L110.132 26.5449ZM133.644 121.548C133.188 123.523 132.369 125.397 131.231 127.075C130.189 128.637 128.84 129.971 127.267 130.997C125.786 131.961 123.758 132.731 121.205 133.344C119.146 133.826 116.024 134.042 111.841 134.042H96.0891L102.711 111.076L120.214 110.967C123.914 110.967 126.339 111.16 127.98 111.577C129.622 111.994 130.939 112.606 131.944 113.538C132.915 114.426 133.577 115.6 133.833 116.891C134.126 118.236 134.066 119.78 133.644 121.548ZM138.053 85.5839C136.708 86.662 135.168 87.4701 133.516 87.9636C131.883 88.4456 130.235 88.4293 128.594 88.6319C126.952 88.8345 124.338 88.7274 120.51 88.7274L109.118 88.8578C109.601 87.1882 113.609 73.0566 114.637 69.65L127.976 69.494C132.354 69.494 140.606 68.4741 142.847 72.3441C143.747 73.8972 143.546 75.9183 143.08 77.9115C142.758 79.2946 142.147 80.41 141.331 81.7931C141.014 82.3598 140.647 82.8974 140.235 83.3998C139.6 84.2139 138.867 84.9474 138.053 85.5839Z"
        fill="#F4A519" />
</svg>