<svg width="88" height="88" viewBox="0 0 88 88" fill="none" xmlns="http://www.w3.org/2000/svg">
<circle cx="44" cy="44" r="44" fill="#E2E8F0"/>
<path d="M57.7833 41.4474H60.2876C62.2802 41.4474 64.1912 42.239 65.6002 43.648C67.0092 45.057 67.8007 46.968 67.8007 48.9606C67.8007 50.9531 67.0092 52.8641 65.6002 54.2731C64.1912 55.6821 62.2802 56.4737 60.2876 56.4737H57.7833" stroke="white" stroke-width="3" stroke-linecap="round" stroke-linejoin="round"/>
<path d="M37.7476 43.9576V58.9838" stroke="white" stroke-width="3" stroke-linecap="round" stroke-linejoin="round"/>
<path d="M47.7672 43.9576V58.9838" stroke="white" stroke-width="3" stroke-linecap="round" stroke-linejoin="round"/>
<path d="M50.2697 32.6861C47.7654 32.6861 46.6634 33.9383 42.7566 33.9383C38.8498 33.9383 37.7479 32.6861 35.2435 32.6861C32.7391 32.6861 30.936 33.9383 28.9826 33.9383C27.3221 33.9383 25.7296 33.2787 24.5555 32.1045C23.3813 30.9304 22.7217 29.3379 22.7217 27.6774C22.7217 26.0169 23.3813 24.4244 24.5555 23.2503C25.7296 22.0761 27.3221 21.4165 28.9826 21.4165C30.936 21.4165 32.9145 22.6687 35.2435 22.6687C37.5726 22.6687 38.8498 18.9121 42.7566 18.9121C46.6634 18.9121 47.7654 22.6687 50.2697 22.6687C52.7741 22.6687 54.5772 21.4165 56.5306 21.4165C58.1911 21.4165 59.7836 22.0761 60.9578 23.2503C62.1319 24.4244 62.7916 26.0169 62.7916 27.6774C62.7916 29.3379 62.1319 30.9304 60.9578 32.1045C59.7836 33.2787 58.1911 33.9383 56.5306 33.9383C54.5772 33.9383 52.7741 32.6861 50.2697 32.6861Z" stroke="white" stroke-width="3" stroke-linecap="round" stroke-linejoin="round"/>
<path d="M27.7315 33.938V63.9904C27.7315 65.3188 28.2592 66.5928 29.1985 67.5321C30.1379 68.4715 31.4118 68.9992 32.7402 68.9992H52.7752C54.1036 68.9992 55.3776 68.4715 56.3169 67.5321C57.2562 66.5928 57.7839 65.3188 57.7839 63.9904V33.938" stroke="white" stroke-width="3" stroke-linecap="round" stroke-linejoin="round"/>
</svg>
