<svg width="668" height="289" viewBox="0 0 668 289" fill="none" xmlns="http://www.w3.org/2000/svg">
<g opacity="0.2">
<path d="M178.725 72.748L181.852 134.849C181.852 134.849 188.551 137.301 199.605 137.524C208.65 137.747 217.359 134.849 217.359 134.849L220.151 81.7788H202.285" stroke="#F4A519" stroke-width="2" stroke-miterlimit="10" stroke-linecap="round" stroke-linejoin="round"/>
<path d="M180.847 73.1929C174.259 73.1929 173.701 62.4898 184.643 62.4898C196.256 62.4898 191.454 67.6184 201.727 62.0438C201.727 62.0438 207.087 60.8174 209.431 65.1656C209.431 65.1656 211.553 55.2428 220.821 60.037C230.2 64.7196 221.267 74.4193 220.821 74.6423H197.931C197.931 74.6423 199.159 79.9939 193.018 84.3421C193.018 84.3421 198.266 102.181 187.323 102.292L185.983 73.3044H180.847V73.1929Z" stroke="#F4A519" stroke-width="2" stroke-miterlimit="10" stroke-linecap="round" stroke-linejoin="round"/>
<path d="M187.323 109.539L187.881 123.364" stroke="#F4A519" stroke-width="2" stroke-miterlimit="10" stroke-linecap="round" stroke-linejoin="round"/>
<path d="M91.7446 -3.84375H94.9827C98.7791 -3.84375 101.794 -0.833498 101.794 2.9572V31.3875C101.794 35.1782 98.7791 38.1884 94.9827 38.1884H91.7446" stroke="#F4A519" stroke-width="2" stroke-miterlimit="10" stroke-linecap="round" stroke-linejoin="round"/>
<path d="M54.4508 -25.5859H91.633V48.5557C91.633 48.5557 83.0353 53.1268 72.0928 53.2383C62.6018 53.4613 54.3391 48.5557 54.3391 48.5557V-11.5381H91.5214" stroke="#F4A519" stroke-width="2" stroke-miterlimit="10" stroke-linecap="round" stroke-linejoin="round"/>
<path d="M65.0579 -3.17578V25.0315" stroke="#F4A519" stroke-width="2" stroke-miterlimit="10" stroke-linecap="round" stroke-linejoin="round"/>
<path d="M65.0579 31.3887V37.6322" stroke="#F4A519" stroke-width="2" stroke-miterlimit="10" stroke-linecap="round" stroke-linejoin="round"/>
<path d="M216.244 -78.8789C216.244 -78.8789 221.826 -46.435 210.437 -30.0457C201.17 -16.6668 213.787 -9.97733 213.564 0.837321H182.299C182.076 -9.86584 194.693 -16.5553 185.426 -30.0457C174.148 -46.5464 179.62 -78.8789 179.62 -78.8789H216.244Z" stroke="#F4A519" stroke-width="2" stroke-miterlimit="10" stroke-linecap="round" stroke-linejoin="round"/>
<path d="M457.047 56.3711C457.047 56.3711 462.63 88.815 451.241 105.204C441.973 118.583 454.59 125.273 454.367 136.087H423.103C422.879 125.384 435.497 118.695 426.229 105.204C414.952 88.7036 420.423 56.3711 420.423 56.3711H457.047Z" stroke="#F4A519" stroke-width="2" stroke-miterlimit="10" stroke-linecap="round" stroke-linejoin="round"/>
<path d="M428.127 65.0664C428.127 65.0664 427.457 90.1519 431.924 98.4023" stroke="#F4A519" stroke-width="2" stroke-miterlimit="10" stroke-linecap="round" stroke-linejoin="round"/>
<path d="M453.25 129.953H432.258" stroke="#F4A519" stroke-width="2" stroke-miterlimit="10" stroke-linecap="round" stroke-linejoin="round"/>
<path d="M12.9132 207.652C12.9132 207.652 18.4962 240.096 7.107 256.486C-2.16065 269.864 10.4567 276.554 10.2334 287.369H-21.0309C-21.2542 276.665 -8.63683 269.976 -17.9045 256.486C-29.182 239.985 -23.7107 207.652 -23.7107 207.652H12.9132Z" stroke="#F4A519" stroke-width="2" stroke-miterlimit="10" stroke-linecap="round" stroke-linejoin="round"/>
<path d="M9.11653 281.234H-11.8752" stroke="#F4A519" stroke-width="2" stroke-miterlimit="10" stroke-linecap="round" stroke-linejoin="round"/>
<path d="M68.2963 125.816H115.081C115.081 125.816 132.947 177.66 104.697 191.373H78.7922C58.0237 181.228 62.1551 150.567 65.8398 135.07H94.871" stroke="#F4A519" stroke-width="2" stroke-miterlimit="10" stroke-linecap="round" stroke-linejoin="round"/>
<path d="M72.9861 164.058C71.6462 157.814 72.0928 150.902 73.0977 144.77" stroke="#F4A519" stroke-width="2" stroke-miterlimit="10" stroke-linecap="round" stroke-linejoin="round"/>
<path d="M81.1373 181.228C78.0109 178.664 76.1127 175.542 74.9961 172.086" stroke="#F4A519" stroke-width="2" stroke-miterlimit="10" stroke-linecap="round" stroke-linejoin="round"/>
<path d="M117.649 134.959H135.068C135.068 134.959 143.331 176.88 116.979 178.552" stroke="#F4A519" stroke-width="2" stroke-miterlimit="10" stroke-linecap="round" stroke-linejoin="round"/>
<path d="M68.2964 125.817C68.2964 125.817 63.8301 112.215 72.5394 109.762C81.2488 107.31 85.6035 111.769 86.8317 117.79C86.8317 117.79 90.1814 111.658 95.9877 113.665C100.789 115.337 100.342 120.466 100.342 120.466C100.342 120.466 103.469 114.334 111.285 116.452C115.751 117.79 115.975 122.695 115.081 125.817" stroke="#F4A519" stroke-width="2" stroke-miterlimit="10" stroke-linecap="round" stroke-linejoin="round"/>
<path d="M388.867 -74.8652H426.161V-0.723576C426.161 -0.723576 417.563 3.84758 406.62 3.95907C397.129 4.18205 388.867 -0.723576 388.867 -0.723576V-60.8173H426.161" stroke="#F4A519" stroke-width="2" stroke-miterlimit="10" stroke-linecap="round" stroke-linejoin="round"/>
<path d="M666.964 82.127H670.202C673.999 82.127 677.013 85.1372 677.013 88.9279V117.358C677.013 121.149 673.999 124.159 670.202 124.159H666.964" stroke="#F4A519" stroke-width="2" stroke-miterlimit="10" stroke-linecap="round" stroke-linejoin="round"/>
<path d="M629.67 60.3848H666.964V134.526C666.964 134.526 658.366 139.098 647.424 139.209C637.933 139.432 629.67 134.526 629.67 134.526V74.4327H666.964" stroke="#F4A519" stroke-width="2" stroke-miterlimit="10" stroke-linecap="round" stroke-linejoin="round"/>
<path d="M640.278 82.7949V111.002" stroke="#F4A519" stroke-width="2" stroke-miterlimit="10" stroke-linecap="round" stroke-linejoin="round"/>
<path d="M640.278 117.244V123.488" stroke="#F4A519" stroke-width="2" stroke-miterlimit="10" stroke-linecap="round" stroke-linejoin="round"/>
<path d="M316.96 15.6641C316.96 15.6641 337.281 51.0068 310.93 70.9637C300.434 78.9911 323.547 89.4713 320.086 94.9343C319.193 96.3837 287.035 96.3837 286.03 94.9343C282.346 89.6942 305.794 78.9911 295.186 70.9637C268.835 51.0068 289.157 15.6641 289.157 15.6641H316.96Z" stroke="#F4A519" stroke-width="2" stroke-miterlimit="10" stroke-linecap="round" stroke-linejoin="round"/>
<path d="M290.385 35.3945C290.385 35.3945 287.593 49.9999 299.876 61.9294" stroke="#F4A519" stroke-width="2" stroke-miterlimit="10" stroke-linecap="round" stroke-linejoin="round"/>
<path d="M296.414 90.0273H318.634" stroke="#F4A519" stroke-width="2" stroke-miterlimit="10" stroke-linecap="round" stroke-linejoin="round"/>
<path d="M557.763 150.914C557.763 150.914 578.085 186.257 551.733 206.214C541.238 214.241 564.351 224.721 560.889 230.184C559.996 231.634 527.839 231.634 526.834 230.184C523.149 224.944 546.597 214.241 535.99 206.214C509.638 186.257 529.96 150.914 529.96 150.914H557.763Z" stroke="#F4A519" stroke-width="2" stroke-miterlimit="10" stroke-linecap="round" stroke-linejoin="round"/>
<path d="M531.188 170.645C531.188 170.645 528.396 185.25 540.679 197.179" stroke="#F4A519" stroke-width="2" stroke-miterlimit="10" stroke-linecap="round" stroke-linejoin="round"/>
<path d="M537.218 225.277H559.438" stroke="#F4A519" stroke-width="2" stroke-miterlimit="10" stroke-linecap="round" stroke-linejoin="round"/>
<path d="M512.764 -2.27344H559.549C559.549 -2.27344 577.414 49.57 549.164 63.2834H523.26C502.491 53.1377 506.623 22.4776 510.307 6.98034H539.339" stroke="#F4A519" stroke-width="2" stroke-miterlimit="10" stroke-linecap="round" stroke-linejoin="round"/>
<path d="M517.342 35.9696C516.002 29.7261 516.448 22.8137 517.453 16.6816" stroke="#F4A519" stroke-width="2" stroke-miterlimit="10" stroke-linecap="round" stroke-linejoin="round"/>
<path d="M525.493 53.027C522.367 50.4627 520.469 47.341 519.352 43.8848" stroke="#F4A519" stroke-width="2" stroke-miterlimit="10" stroke-linecap="round" stroke-linejoin="round"/>
<path d="M562.005 6.75977H579.424C579.424 6.75977 587.687 48.6805 561.335 50.3528" stroke="#F4A519" stroke-width="2" stroke-miterlimit="10" stroke-linecap="round" stroke-linejoin="round"/>
</g>
</svg>
