<svg width="375" height="237" viewBox="0 0 375 237" fill="none" xmlns="http://www.w3.org/2000/svg">
<g opacity="0.2">
<path d="M109.311 121.85L110.973 154.909C110.973 154.909 114.534 156.215 120.41 156.333C125.218 156.452 129.847 154.909 129.847 154.909L131.331 126.657H121.835" stroke="#F4A519" stroke-miterlimit="10" stroke-linecap="round" stroke-linejoin="round"/>
<path d="M110.439 122.087C106.937 122.087 106.641 116.389 112.457 116.389C118.63 116.389 116.078 119.119 121.538 116.152C121.538 116.152 124.387 115.499 125.633 117.813C125.633 117.813 126.761 112.531 131.687 115.083C136.673 117.576 131.925 122.74 131.687 122.858H119.52C119.52 122.858 120.173 125.707 116.908 128.022C116.908 128.022 119.698 137.519 113.882 137.578L113.169 122.146H110.439V122.087Z" stroke="#F4A519" stroke-miterlimit="10" stroke-linecap="round" stroke-linejoin="round"/>
<path d="M113.882 141.436L114.178 148.795" stroke="#F4A519" stroke-miterlimit="10" stroke-linecap="round" stroke-linejoin="round"/>
<path d="M63.0759 81.0762H64.7971C66.8151 81.0762 68.4177 82.6787 68.4177 84.6967V99.8315C68.4177 101.85 66.8151 103.452 64.7971 103.452H63.0759" stroke="#F4A519" stroke-miterlimit="10" stroke-linecap="round" stroke-linejoin="round"/>
<path d="M43.2522 69.502H63.0166V108.971C63.0166 108.971 58.4465 111.405 52.6299 111.464C47.585 111.583 43.1929 108.971 43.1929 108.971V76.9804H62.9572" stroke="#F4A519" stroke-miterlimit="10" stroke-linecap="round" stroke-linejoin="round"/>
<path d="M48.8906 81.4316V96.4478" stroke="#F4A519" stroke-miterlimit="10" stroke-linecap="round" stroke-linejoin="round"/>
<path d="M48.8906 99.832V103.156" stroke="#F4A519" stroke-miterlimit="10" stroke-linecap="round" stroke-linejoin="round"/>
<path d="M129.254 41.1309C129.254 41.1309 132.222 58.4024 126.168 67.1272C121.241 74.2495 127.948 77.8107 127.83 83.5679H111.211C111.092 77.87 117.799 74.3089 112.873 67.1272C106.878 58.3431 109.786 41.1309 109.786 41.1309H129.254Z" stroke="#F4A519" stroke-miterlimit="10" stroke-linecap="round" stroke-linejoin="round"/>
<path d="M113.882 45.7598C113.882 45.7598 113.526 59.1141 115.9 63.5062" stroke="#F4A519" stroke-miterlimit="10" stroke-linecap="round" stroke-linejoin="round"/>
<path d="M127.236 80.3027H116.078" stroke="#F4A519" stroke-miterlimit="10" stroke-linecap="round" stroke-linejoin="round"/>
<path d="M257.254 113.131C257.254 113.131 260.222 130.402 254.168 139.127C249.241 146.25 255.948 149.811 255.83 155.568H239.211C239.092 149.87 245.799 146.309 240.873 139.127C234.878 130.343 237.786 113.131 237.786 113.131H257.254Z" stroke="#F4A519" stroke-miterlimit="10" stroke-linecap="round" stroke-linejoin="round"/>
<path d="M241.882 117.76C241.882 117.76 241.526 131.114 243.9 135.506" stroke="#F4A519" stroke-miterlimit="10" stroke-linecap="round" stroke-linejoin="round"/>
<path d="M255.236 152.303H244.078" stroke="#F4A519" stroke-miterlimit="10" stroke-linecap="round" stroke-linejoin="round"/>
<path d="M21.1729 193.666C21.1729 193.666 24.1405 210.938 18.0866 219.662C13.1603 226.785 19.8672 230.346 19.7485 236.103H3.12977C3.01107 230.405 9.7179 226.844 4.79164 219.662C-1.20296 210.878 1.70531 193.666 1.70531 193.666H21.1729Z" stroke="#F4A519" stroke-miterlimit="10" stroke-linecap="round" stroke-linejoin="round"/>
<path d="M5.8007 198.355C5.8007 198.355 5.44459 211.71 7.81869 216.102" stroke="#F4A519" stroke-miterlimit="10" stroke-linecap="round" stroke-linejoin="round"/>
<path d="M19.1548 232.838H7.99658" stroke="#F4A519" stroke-miterlimit="10" stroke-linecap="round" stroke-linejoin="round"/>
<path d="M50.6119 150.102H75.4806C75.4806 150.102 84.977 177.7 69.9608 185.001H56.191C45.1515 179.6 47.3475 163.278 49.3062 155.028H64.7378" stroke="#F4A519" stroke-miterlimit="10" stroke-linecap="round" stroke-linejoin="round"/>
<path d="M53.1049 170.459C52.3926 167.136 52.63 163.456 53.1642 160.191" stroke="#F4A519" stroke-miterlimit="10" stroke-linecap="round" stroke-linejoin="round"/>
<path d="M57.4377 179.599C55.7759 178.234 54.7669 176.572 54.1733 174.732" stroke="#F4A519" stroke-miterlimit="10" stroke-linecap="round" stroke-linejoin="round"/>
<path d="M76.8459 154.969H86.1048C86.1048 154.969 90.4969 177.285 76.4897 178.176" stroke="#F4A519" stroke-miterlimit="10" stroke-linecap="round" stroke-linejoin="round"/>
<path d="M50.6121 150.102C50.6121 150.102 48.238 142.861 52.8675 141.555C57.497 140.249 59.8117 142.623 60.4646 145.828C60.4646 145.828 62.2452 142.564 65.3315 143.632C67.8836 144.522 67.6462 147.253 67.6462 147.253C67.6462 147.253 69.3081 143.988 73.4628 145.116C75.8369 145.828 75.9556 148.44 75.4807 150.102" stroke="#F4A519" stroke-miterlimit="10" stroke-linecap="round" stroke-linejoin="round"/>
<path d="M240.836 54.8418H242.558C244.576 54.8418 246.178 56.4443 246.178 58.4623V73.5972C246.178 75.6152 244.576 77.2177 242.558 77.2177H240.836" stroke="#F4A519" stroke-miterlimit="10" stroke-linecap="round" stroke-linejoin="round"/>
<path d="M221.013 43.2676H240.836V82.737C240.836 82.737 236.266 85.1704 230.45 85.2298C225.405 85.3485 221.013 82.737 221.013 82.737V50.746H240.836" stroke="#F4A519" stroke-miterlimit="10" stroke-linecap="round" stroke-linejoin="round"/>
<path d="M226.651 55.1973V70.2134" stroke="#F4A519" stroke-miterlimit="10" stroke-linecap="round" stroke-linejoin="round"/>
<path d="M226.651 73.5371V76.8609" stroke="#F4A519" stroke-miterlimit="10" stroke-linecap="round" stroke-linejoin="round"/>
<path d="M368.836 126.842H370.558C372.576 126.842 374.178 128.444 374.178 130.462V145.597C374.178 147.615 372.576 149.218 370.558 149.218H368.836" stroke="#F4A519" stroke-miterlimit="10" stroke-linecap="round" stroke-linejoin="round"/>
<path d="M349.013 115.268H368.836V154.737C368.836 154.737 364.266 157.17 358.45 157.23C353.405 157.348 349.013 154.737 349.013 154.737V122.746H368.836" stroke="#F4A519" stroke-miterlimit="10" stroke-linecap="round" stroke-linejoin="round"/>
<path d="M354.651 127.197V142.213" stroke="#F4A519" stroke-miterlimit="10" stroke-linecap="round" stroke-linejoin="round"/>
<path d="M354.651 145.537V148.861" stroke="#F4A519" stroke-miterlimit="10" stroke-linecap="round" stroke-linejoin="round"/>
<path d="M182.79 91.4609C182.79 91.4609 193.592 110.276 179.585 120.9C174.006 125.173 186.292 130.752 184.452 133.661C183.977 134.432 166.884 134.432 166.349 133.661C164.391 130.871 176.855 125.173 171.216 120.9C157.209 110.276 168.011 91.4609 168.011 91.4609H182.79Z" stroke="#F4A519" stroke-miterlimit="10" stroke-linecap="round" stroke-linejoin="round"/>
<path d="M168.664 101.965C168.664 101.965 167.18 109.74 173.709 116.091" stroke="#F4A519" stroke-miterlimit="10" stroke-linecap="round" stroke-linejoin="round"/>
<path d="M171.869 131.049H183.68" stroke="#F4A519" stroke-miterlimit="10" stroke-linecap="round" stroke-linejoin="round"/>
<path d="M310.79 163.461C310.79 163.461 321.592 182.276 307.585 192.9C302.006 197.173 314.292 202.752 312.452 205.661C311.977 206.432 294.884 206.432 294.349 205.661C292.391 202.871 304.855 197.173 299.216 192.9C285.209 182.276 296.011 163.461 296.011 163.461H310.79Z" stroke="#F4A519" stroke-miterlimit="10" stroke-linecap="round" stroke-linejoin="round"/>
<path d="M296.664 173.965C296.664 173.965 295.18 181.74 301.709 188.091" stroke="#F4A519" stroke-miterlimit="10" stroke-linecap="round" stroke-linejoin="round"/>
<path d="M299.869 203.049H311.68" stroke="#F4A519" stroke-miterlimit="10" stroke-linecap="round" stroke-linejoin="round"/>
<path d="M158.871 9.91211H183.739C183.739 9.91211 193.236 37.511 178.22 44.8114H164.45C153.41 39.4103 155.606 23.0884 157.565 14.8384H172.997" stroke="#F4A519" stroke-miterlimit="10" stroke-linecap="round" stroke-linejoin="round"/>
<path d="M161.304 30.2699C160.592 26.9462 160.829 23.2663 161.363 20.002" stroke="#F4A519" stroke-miterlimit="10" stroke-linecap="round" stroke-linejoin="round"/>
<path d="M165.637 39.3513C163.975 37.9862 162.966 36.3243 162.373 34.4844" stroke="#F4A519" stroke-miterlimit="10" stroke-linecap="round" stroke-linejoin="round"/>
<path d="M185.045 14.7207H194.304C194.304 14.7207 198.696 37.0372 184.689 37.9275" stroke="#F4A519" stroke-miterlimit="10" stroke-linecap="round" stroke-linejoin="round"/>
<path d="M158.871 9.91207C158.871 9.91207 156.497 2.67107 161.126 1.36532C165.756 0.0595635 168.07 2.43366 168.723 5.63869C168.723 5.63869 170.504 2.37431 173.59 3.44265C176.142 4.33294 175.905 7.06315 175.905 7.06315C175.905 7.06315 177.567 3.79877 181.722 4.92647C184.155 5.6387 184.214 8.2502 183.74 9.91207" stroke="#F4A519" stroke-miterlimit="10" stroke-linecap="round" stroke-linejoin="round"/>
<path d="M286.871 81.9121H311.739C311.739 81.9121 321.236 109.511 306.22 116.811H292.45C281.41 111.41 283.606 95.0884 285.565 86.8384H300.997" stroke="#F4A519" stroke-miterlimit="10" stroke-linecap="round" stroke-linejoin="round"/>
<path d="M289.304 102.27C288.592 98.9462 288.829 95.2663 289.363 92.002" stroke="#F4A519" stroke-miterlimit="10" stroke-linecap="round" stroke-linejoin="round"/>
<path d="M293.637 111.351C291.975 109.986 290.966 108.324 290.373 106.484" stroke="#F4A519" stroke-miterlimit="10" stroke-linecap="round" stroke-linejoin="round"/>
<path d="M313.045 86.7207H322.304C322.304 86.7207 326.696 109.037 312.689 109.928" stroke="#F4A519" stroke-miterlimit="10" stroke-linecap="round" stroke-linejoin="round"/>
<path d="M286.871 81.9121C286.871 81.9121 284.497 74.6711 289.126 73.3653C293.756 72.0596 296.07 74.4337 296.723 77.6387C296.723 77.6387 298.504 74.3743 301.59 75.4427C304.142 76.3329 303.905 79.0632 303.905 79.0632C303.905 79.0632 305.567 75.7988 309.722 76.9265C312.155 77.6387 312.214 80.2502 311.74 81.9121" stroke="#F4A519" stroke-miterlimit="10" stroke-linecap="round" stroke-linejoin="round"/>
</g>
</svg>
