<svg xmlns="http://www.w3.org/2000/svg" xmlns:xlink="http://www.w3.org/1999/xlink">
    <symbol viewBox="0 0 21 19" id="heart">
        <path
            d="M18.4927 2.49933C18.0165 2.0241 17.4506 1.64702 16.8275 1.38973C16.2045 1.13244 15.5365 1 14.8618 1C14.1872 1 13.5191 1.13244 12.8961 1.38973C12.273 1.64702 11.7071 2.0241 11.2309 2.49933L10.5 3.23566L9.76908 2.49933C9.29286 2.0241 8.72699 1.64702 8.10392 1.38973C7.48085 1.13244 6.81284 1 6.1382 1C5.46355 1 4.79554 1.13244 4.17247 1.38973C3.5494 1.64702 2.98353 2.0241 2.50731 2.49933C0.494903 4.50064 0.3715 7.8802 2.906 10.4479L10.5 18L18.094 10.4479C20.6285 7.8802 20.5051 4.50064 18.4927 2.49933Z"
            stroke-width="2" stroke-linecap="round" stroke-linejoin="round" />
    </symbol>
    <symbol viewBox="0 0 32 32" id="filters">
        <path d="M26.6665 9.33337H14.6665" stroke-width="2" stroke-linecap="round" stroke-linejoin="round" />
        <path d="M18.6665 22.6667H6.6665" stroke-width="2" stroke-linecap="round" stroke-linejoin="round" />
        <path
            d="M22.6665 26.6667C24.8756 26.6667 26.6665 24.8759 26.6665 22.6667C26.6665 20.4576 24.8756 18.6667 22.6665 18.6667C20.4574 18.6667 18.6665 20.4576 18.6665 22.6667C18.6665 24.8759 20.4574 26.6667 22.6665 26.6667Z"
            stroke-width="2" stroke-linecap="round" stroke-linejoin="round" />
        <path
            d="M9.33325 13.3334C11.5424 13.3334 13.3333 11.5425 13.3333 9.33337C13.3333 7.12423 11.5424 5.33337 9.33325 5.33337C7.12411 5.33337 5.33325 7.12423 5.33325 9.33337C5.33325 11.5425 7.12411 13.3334 9.33325 13.3334Z"
            stroke-width="2" stroke-linecap="round" stroke-linejoin="round" />
    </symbol>
    <symbol viewBox="0 0 22 22" id="tiles">
        <path d="M9.23529 1H1V9.23529H9.23529V1Z" stroke-linecap="round" stroke-linejoin="round" />
        <path d="M20.9999 1H12.7646V9.23529H20.9999V1Z" stroke-linecap="round" stroke-linejoin="round" />
        <path d="M20.9999 12.7646H12.7646V20.9999H20.9999V12.7646Z" stroke-linecap="round" stroke-linejoin="round" />
        <path d="M9.23529 12.7646H1V20.9999H9.23529V12.7646Z" stroke-linecap="round" stroke-linejoin="round" />
    </symbol>
    <symbol viewBox="0 0 20 20" id="map">
        <path d="M1 4L7 1L13 4L19 1V16L13 19L7 16L1 19V4Z" stroke-linecap="round" stroke-linejoin="round" />
        <path d="M7 1V16" stroke-linecap="round" stroke-linejoin="round" />
        <path d="M13 4V19" stroke-linecap="round" stroke-linejoin="round" />
    </symbol>
    <symbol viewBox="0 0 14 14" id="%">
        <path
            d="M2.13714 13.4472L0.534286 11.8443L11.7543 0.62432L13.3571 2.24499L2.13714 13.4472ZM10.6857 13.7143C10.098 13.7143 9.56075 13.5718 9.07395 13.2869C8.5931 12.996 8.20722 12.6101 7.91633 12.1293C7.62544 11.6425 7.48 11.1023 7.48 10.5086C7.48 9.92683 7.62841 9.39254 7.92524 8.90575C8.22206 8.41895 8.61387 8.03011 9.10067 7.73922C9.58746 7.44834 10.1158 7.30289 10.6857 7.30289C11.2734 7.30289 11.8107 7.44834 12.2975 7.73922C12.7843 8.02418 13.1701 8.41005 13.4551 8.89684C13.746 9.3777 13.8914 9.91496 13.8914 10.5086C13.8914 11.1023 13.746 11.6425 13.4551 12.1293C13.1701 12.6101 12.7843 12.996 12.2975 13.2869C11.8107 13.5718 11.2734 13.7143 10.6857 13.7143ZM10.6857 11.6662C10.8935 11.6662 11.0835 11.6128 11.2556 11.5059C11.4337 11.3991 11.5762 11.2596 11.683 11.0874C11.7899 10.9093 11.8433 10.7164 11.8433 10.5086C11.8433 10.3008 11.7899 10.1109 11.683 9.9387C11.5762 9.76061 11.4337 9.61813 11.2556 9.51127C11.0835 9.40442 10.8935 9.35099 10.6857 9.35099C10.4779 9.35099 10.285 9.40442 10.1069 9.51127C9.93475 9.61813 9.79524 9.76061 9.68838 9.9387C9.58152 10.1109 9.5281 10.3008 9.5281 10.5086C9.5281 10.7164 9.58152 10.9093 9.68838 11.0874C9.79524 11.2596 9.93475 11.3991 10.1069 11.5059C10.285 11.6128 10.4779 11.6662 10.6857 11.6662ZM3.20571 6.76861C2.618 6.76861 2.08075 6.62613 1.59395 6.34118C1.10716 6.05029 0.718318 5.66442 0.427429 5.18356C0.142476 4.69676 0 4.15654 0 3.56289C0 2.98111 0.148413 2.44683 0.445238 1.96003C0.742063 1.47324 1.13387 1.0844 1.62067 0.79351C2.10746 0.502622 2.63581 0.357178 3.20571 0.357178C3.79343 0.357178 4.32771 0.502622 4.80857 0.79351C5.29536 1.07846 5.68421 1.46434 5.97509 1.95113C6.26598 2.43199 6.41143 2.96924 6.41143 3.56289C6.41143 4.15654 6.26598 4.69676 5.97509 5.18356C5.68421 5.66442 5.29536 6.05029 4.80857 6.34118C4.32771 6.62613 3.79343 6.76861 3.20571 6.76861ZM3.20571 4.72051C3.41349 4.72051 3.60346 4.66708 3.77562 4.56023C3.95371 4.45337 4.09619 4.31386 4.20305 4.1417C4.3099 3.96361 4.36333 3.77067 4.36333 3.56289C4.36333 3.35511 4.3099 3.16515 4.20305 2.99299C4.09619 2.81489 3.95371 2.67242 3.77562 2.56556C3.60346 2.4587 3.41349 2.40527 3.20571 2.40527C2.99794 2.40527 2.805 2.4587 2.6269 2.56556C2.45475 2.67242 2.31524 2.81489 2.20838 2.99299C2.10152 3.16515 2.0481 3.35511 2.0481 3.56289C2.0481 3.77067 2.10152 3.96361 2.20838 4.1417C2.31524 4.31386 2.45475 4.45337 2.6269 4.56023C2.805 4.66708 2.99794 4.72051 3.20571 4.72051Z" />
    </symbol>
    <symbol viewBox="0 0 24 24" id="dots">
        <path
            d="M12 13C12.5523 13 13 12.5523 13 12C13 11.4477 12.5523 11 12 11C11.4477 11 11 11.4477 11 12C11 12.5523 11.4477 13 12 13Z"
            stroke-width="2" stroke-linecap="round" stroke-linejoin="round" />
        <path
            d="M19 13C19.5523 13 20 12.5523 20 12C20 11.4477 19.5523 11 19 11C18.4477 11 18 11.4477 18 12C18 12.5523 18.4477 13 19 13Z"
            stroke-width="2" stroke-linecap="round" stroke-linejoin="round" />
        <path
            d="M5 13C5.55228 13 6 12.5523 6 12C6 11.4477 5.55228 11 5 11C4.44772 11 4 11.4477 4 12C4 12.5523 4.44772 13 5 13Z"
            stroke-width="2" stroke-linecap="round" stroke-linejoin="round" />
    </symbol>
    <symbol viewBox="0 0 576 156" id="logoLong">
        <path class="gb"
            d="M109.526 26.5511C112.255 17.1527 114.074 10.8506 116.457 3.16932C102.659 0.337939 99.7853 0 87.8795 0C71.5624 0 57.6162 2.7096 46.0408 8.1288C34.8607 13.2124 24.9654 20.7611 17.0903 30.2136C9.69114 38.9442 4.41901 49.2856 1.69185 60.418C1.21256 62.4122 0.839127 64.4305 0.573116 66.4644C-0.0605194 70.7675 -0.167426 75.1322 0.254779 79.4613C0.664571 85.0772 2.33765 90.5266 5.14808 95.3993C7.92577 99.9752 11.9284 103.675 16.6992 106.076C21.6925 108.679 26.4767 109.73 33.2982 110.963C40.1197 112.196 48.0509 112.241 55.4363 112.241C59.3473 112.241 64.2497 111.821 69.1703 111.492C67.5423 117.311 59.9385 143.715 56.4368 155.982L71.7716 155.836L93.173 155.589L116.994 155.306C124.525 155.214 129.791 155.151 132.738 154.703C136.488 154.075 140.152 153.006 143.652 151.515C150.867 148.587 156.934 143.377 160.933 136.674C163.121 133.143 164.722 129.277 165.672 125.229C166.355 122.49 166.625 119.664 166.472 116.845C166.365 114.354 165.746 111.913 164.653 109.675C163.679 107.653 162.283 105.865 160.56 104.432C159.104 103.187 157.462 102.179 155.694 101.446C153.572 100.704 151.386 100.163 149.164 99.829C151.699 99.1977 154.19 98.4014 156.622 97.4452C164.074 94.216 170.181 88.4934 173.903 81.2515C174.349 80.4112 174.731 79.5801 175.122 78.7124C175.969 76.7072 176.641 74.6322 177.132 72.5108C178.043 68.9314 178.24 65.2068 177.714 61.5506C177.314 58.7522 176.223 56.099 174.54 53.8328C172.885 51.8805 170.819 50.3209 168.492 49.266C165.534 47.935 162.389 47.0694 159.169 46.6995C156.386 46.3433 77.4107 47.6129 72.5811 47.6677C71.5806 51.1293 70.8711 53.8693 70.2618 55.8878C69.6524 57.9063 69.234 59.4225 68.952 60.4546L66.0324 70.2091L81.067 70.0356C80.303 72.9583 75.6098 89.1246 75.6098 89.1246H58.5651C52.7441 89.1246 48.6421 88.8688 44.4218 86.6129C42.4667 85.6376 40.7394 84.2576 39.3536 82.5637C37.9678 80.8698 36.9549 78.9005 36.3815 76.7852C35.6316 73.8247 35.4068 70.7546 35.7176 67.7157C35.8776 65.8197 36.1817 63.9389 36.6271 62.0895C37.9349 56.636 40.129 51.4363 43.1212 46.6995C46.1801 41.8456 50.1017 37.598 54.6905 34.1684C59.3753 30.6487 64.6574 28.012 70.2799 26.3866C75.9895 24.7197 81.9062 23.877 87.8522 23.8841C90.126 23.8841 92.6849 24.0119 95.5287 24.2677C98.3755 24.5234 101.359 24.9436 104.46 25.519L109.526 26.5511ZM132.911 121.548C132.462 123.528 131.648 125.406 130.509 127.083C129.477 128.643 128.14 129.975 126.58 131.002C124.716 132.112 122.681 132.905 120.559 133.349C117.487 133.907 114.366 134.143 111.245 134.052H95.565L102.15 111.081L119.559 110.981C122.147 110.887 124.738 111.089 127.281 111.584C128.741 111.883 130.099 112.56 131.219 113.548C132.187 114.43 132.847 115.602 133.102 116.89C133.386 118.438 133.321 120.03 132.911 121.548ZM137.34 85.5899C135.991 86.6692 134.447 87.4756 132.792 87.9646C131.184 88.3305 129.546 88.5536 127.899 88.6314C126.235 88.7958 123.67 88.7318 119.859 88.7318L108.535 88.8597C109.008 87.1883 112.992 73.0588 113.992 69.6794L127.262 69.5241C131.61 69.5241 139.823 68.5012 142.051 72.3738C142.961 73.9265 142.734 75.945 142.288 77.9452C141.906 79.3178 141.317 80.6238 140.542 81.8178C140.23 82.3852 139.867 82.9232 139.459 83.4253C138.841 84.2288 138.13 84.9554 137.34 85.5899Z"
            fill="#F4A519" />
        <g class="letters display-none">
            <path class="display-none"
                d="M246.239 73.068C250.222 73.1228 254.018 73.1502 257.626 73.1502C263.811 73.1502 268.662 73.1228 272.179 73.068C271.093 77.0745 269.714 82.7495 268.04 90.0928C266.367 97.4361 265.154 102.98 264.402 106.725C260.946 107.346 258.09 107.784 255.843 108.067C253.597 108.351 250.905 108.597 247.776 108.816C244.647 109.036 241.882 109.145 239.463 109.145C235.61 109.152 231.764 108.828 227.966 108.177C224.579 107.634 221.294 106.575 218.225 105.035C215.576 103.706 213.327 101.692 211.713 99.1989C210.055 96.5322 208.988 93.5388 208.584 90.4216C208.084 86.954 208.152 83.4277 208.784 79.982C209.854 73.9598 212.35 68.2839 216.06 63.4321C219.973 58.2797 225.052 54.1374 230.877 51.3485C236.94 48.371 244.332 46.8853 253.051 46.8914C260.042 46.9584 267.009 47.7387 273.843 49.2204C273.085 53.4827 272.439 58.2352 271.906 63.4778C269.932 62.7745 268.322 62.2448 267.094 61.8794C265.654 61.4664 264.194 61.128 262.72 60.8656C261.046 60.5642 259.436 60.3359 257.908 60.1897C256.38 60.0436 254.998 59.9705 253.77 59.9705C250.608 59.963 247.463 60.4278 244.438 61.3497C241.488 62.235 238.734 63.6798 236.325 65.6059C233.96 67.493 231.986 69.8262 230.513 72.4743C229.04 75.0924 228.022 77.9432 227.502 80.9045C226.954 83.5732 227.067 86.3362 227.83 88.9511C228.198 90.1133 228.797 91.1889 229.589 92.1133C230.381 93.0377 231.351 93.7919 232.441 94.3307C234.978 95.6088 237.79 96.2364 240.627 96.1574C243.565 96.1116 246.489 95.7286 249.34 95.0157L251.514 85.4895C249.631 85.4073 248.513 85.3616 248.167 85.3616H243.51L244.765 79.9637C244.902 79.3792 245.093 78.5389 245.338 77.4338C245.584 76.3286 245.902 74.8947 246.239 73.068Z"
                fill="#F4A519" />
            <path
                d="M319.92 94.7053C319.229 96.4589 317.755 100.7 315.5 107.428C311.995 108.104 309.075 108.552 306.741 108.771C304.403 108.99 302.048 109.1 299.692 109.1C296.527 109.122 293.366 108.878 290.242 108.369C287.732 108.007 285.322 107.137 283.157 105.812C281.329 104.653 279.789 103.092 278.654 101.245C277.492 99.2521 276.772 97.0307 276.544 94.7327C276.237 92.1471 276.32 89.53 276.79 86.9692C277.5 83.0924 278.909 79.3782 280.946 76.009C282.769 72.7453 285.224 69.8817 288.168 67.5879C290.817 65.5935 293.825 64.1326 297.027 63.2861C300.167 62.4471 303.401 62.0203 306.65 62.0165C309.786 61.9915 312.911 62.3815 315.945 63.1765C318.602 63.8227 321.013 65.2318 322.885 67.2317C324.592 69.0503 325.749 71.3181 326.223 73.7713C326.682 76.371 326.663 79.0331 326.169 81.6261C325.816 83.5251 325.299 85.3894 324.622 87.1975H293.98C293.871 87.6633 293.78 88.1109 293.716 88.458C293.158 91.606 293.874 93.9228 295.863 95.4085C298.158 96.9898 300.905 97.7726 303.685 97.6371C305.931 97.6043 308.171 97.3782 310.379 96.9612C312.938 96.535 316.118 95.783 319.92 94.7053ZM295.526 80.5301H309.952C310.07 80.0277 310.161 79.6167 310.215 79.2514C310.494 77.9612 310.453 76.6221 310.097 75.3514C309.802 74.3381 309.118 73.4839 308.196 72.9767C307.19 72.4592 306.07 72.2018 304.94 72.2278C304.054 72.2327 303.173 72.3744 302.33 72.6479C301.463 72.927 300.646 73.3432 299.91 73.8809C299.173 74.3941 298.512 75.009 297.946 75.7076C297.431 76.3347 296.989 77.0179 296.627 77.7444C296.204 78.6495 295.836 79.5798 295.526 80.5301Z"
                fill="#F4A519" />
            <path
                d="M362.077 95.0522C361.125 97.4878 360.252 99.8869 359.457 102.249L357.557 107.602C354.525 108.247 352.202 108.658 350.589 108.835C349.012 109.005 347.428 109.094 345.842 109.1C343.663 109.127 341.488 108.912 339.357 108.46C337.693 108.135 336.162 107.325 334.955 106.131C333.909 105.08 333.23 103.719 333.017 102.249C332.809 100.703 332.849 99.1338 333.135 97.6005C333.181 97.3082 333.29 96.7876 333.445 96.0386C333.599 95.2897 334 93.6365 334.627 91.0609L338.265 75.8719H331.462C331.962 73.8534 332.553 71.1955 333.281 67.8892L334.127 63.8065H341.403C341.815 62.467 342.549 59.526 343.604 54.9836L351.353 53.4492C352.772 53.1812 355.804 52.5084 360.449 51.4307C359.564 55.2546 358.69 59.3798 357.829 63.8065H367.834C366.531 69.8955 365.709 73.9173 365.369 75.8719H355.21L352.754 86.8321C352.409 88.4761 352.199 89.5721 352.117 89.9923C351.882 91.1488 351.826 92.3351 351.954 93.5086C351.994 93.9205 352.129 94.3173 352.349 94.6677C352.568 95.018 352.866 95.3123 353.218 95.5271C353.967 95.9492 354.815 96.1606 355.674 96.1391C356.413 96.1394 357.152 96.0875 357.884 95.9838C359.297 95.7497 360.697 95.4387 362.077 95.0522Z"
                fill="#F4A519" />
            <path
                d="M366.097 107.958C367.843 101.516 369.141 96.4526 369.99 92.7688C371.16 87.7392 372.655 80.8343 374.474 72.054C376.293 63.2737 377.506 57.0873 378.112 53.4948C378.343 52.2039 378.646 50.3772 379.022 48.0147C382.878 48.0999 385.943 48.1425 388.217 48.1425C391.394 48.1425 395.105 48.0786 399.35 47.9507C403.594 47.8229 407.232 47.7559 410.264 47.7498C412.842 47.6991 415.421 47.8028 417.986 48.0603C419.752 48.2568 421.476 48.7283 423.098 49.4578C424.478 50.0346 425.689 50.9541 426.618 52.13C427.547 53.3058 428.164 54.6994 428.409 56.18C428.797 58.1644 428.797 60.2055 428.409 62.1898C428.118 63.8404 427.623 65.448 426.936 66.9758C426.281 68.433 425.437 69.7966 424.426 71.031C423.52 72.1514 422.471 73.1464 421.306 73.9903C420.326 74.7064 419.274 75.3185 418.168 75.817C416.892 76.3505 415.579 76.79 414.239 77.1322C415.45 77.325 416.641 77.6308 417.795 78.0456C418.783 78.4427 419.703 78.9911 420.524 79.6713C421.52 80.4641 422.341 81.4563 422.934 82.5849C423.591 83.802 424.005 85.136 424.153 86.5123C424.312 88.035 424.254 89.5729 423.98 91.0791C423.595 93.2779 422.851 95.3979 421.779 97.3538C420.76 99.2463 419.428 100.951 417.841 102.395C416.395 103.679 414.752 104.718 412.975 105.473C411.13 106.297 409.19 106.886 407.199 107.227C404.417 107.543 401.622 107.717 398.822 107.748C394.802 107.863 390.558 107.924 386.089 107.93H374.601L366.097 107.958ZM386.68 95.9015H395.084C396.749 95.951 398.414 95.8194 400.05 95.5088C401.171 95.2781 402.24 94.8448 403.206 94.2301C404.008 93.6636 404.681 92.9319 405.18 92.0837C405.743 91.1545 406.123 90.125 406.299 89.0514C406.488 88.2157 406.488 87.3481 406.299 86.5123C406.116 85.8047 405.726 85.1684 405.18 84.6856C404.558 84.1523 403.814 83.782 403.015 83.6079C401.591 83.3434 400.143 83.2332 398.695 83.2791H389.436L386.68 95.9015ZM392.01 71.3964H398.222C399.685 71.4231 401.148 71.3712 402.606 71.2411C403.491 71.1385 404.365 70.9551 405.216 70.6931C406.075 70.4335 406.871 69.9982 407.554 69.4144C408.227 68.8409 408.78 68.1394 409.182 67.3503C409.55 66.6314 409.81 65.862 409.955 65.0669C410.153 64.0975 410.065 63.091 409.7 62.1716C409.495 61.7243 409.199 61.325 408.831 60.9994C408.462 60.6739 408.031 60.4291 407.563 60.2809C405.912 59.788 404.19 59.578 402.47 59.6599H394.602L392.01 71.3964Z"
                fill="#F4A519" />
            <path
                d="M474.496 94.7052C473.816 96.4589 472.343 100.7 470.075 107.428C466.583 108.104 463.663 108.552 461.316 108.771C458.97 108.99 456.62 109.1 454.267 109.1C451.106 109.122 447.948 108.878 444.826 108.369C442.316 108.009 439.905 107.138 437.741 105.812C435.898 104.658 434.342 103.096 433.194 101.245C432.041 99.2436 431.334 97.0159 431.12 94.7143C430.821 92.1285 430.904 89.5125 431.365 86.9509C432.08 83.0752 433.488 79.3618 435.522 75.9907C437.349 72.7355 439.804 69.8789 442.744 67.5879C445.396 65.5931 448.407 64.1324 451.612 63.286C454.748 62.4471 457.98 62.0204 461.225 62.0165C464.364 61.992 467.492 62.382 470.53 63.1764C473.198 63.8205 475.621 65.2294 477.506 67.2317C479.207 69.0531 480.361 71.32 480.835 73.7713C481.312 76.3676 481.312 79.0297 480.835 81.6261C480.479 83.524 479.961 85.388 479.289 87.1975H448.647C448.528 87.6633 448.446 88.1108 448.374 88.4579C447.828 91.609 448.537 93.938 450.52 95.4085C452.817 96.9917 455.568 97.7746 458.351 97.6371C460.598 97.6034 462.837 97.3773 465.045 96.9612C467.544 96.535 470.694 95.783 474.496 94.7052ZM450.111 80.53H464.527C464.645 80.0277 464.736 79.6167 464.8 79.2514C465.076 77.9605 465.032 76.6213 464.673 75.3514C464.528 74.8488 464.286 74.38 463.96 73.9723C463.633 73.5646 463.229 73.2262 462.772 72.9766C461.765 72.4591 460.646 72.2017 459.515 72.2277C458.632 72.2327 457.755 72.3744 456.914 72.6478C456.045 72.9287 455.226 73.3448 454.486 73.8809C453.752 74.3986 453.092 75.013 452.521 75.7076C452.01 76.3369 451.568 77.0198 451.202 77.7443C450.787 78.6516 450.422 79.5816 450.111 80.53Z"
                fill="#F4A519" />
            <path
                d="M527.467 94.7052C526.776 96.4589 525.302 100.7 523.047 107.428C519.548 108.104 516.628 108.552 514.288 108.771C511.95 108.99 509.595 109.1 507.239 109.1C504.077 109.122 500.919 108.878 497.798 108.369C495.285 108.007 492.872 107.137 490.704 105.812C488.862 104.656 487.306 103.094 486.156 101.245C484.994 99.2521 484.274 97.0306 484.046 94.7326C483.744 92.1469 483.826 89.5304 484.291 86.9692C485.002 83.0924 486.41 79.3782 488.448 76.009C490.281 72.7447 492.746 69.8815 495.697 67.5879C498.347 65.595 501.355 64.1343 504.556 63.286C507.695 62.447 510.93 62.0203 514.179 62.0165C517.318 61.992 520.446 62.382 523.483 63.1764C526.144 63.824 528.559 65.2364 530.432 67.2408C532.139 69.0594 533.297 71.3272 533.77 73.7804C534.243 76.3772 534.243 79.0384 533.77 81.6352C533.409 83.5322 532.892 85.3957 532.224 87.2066H501.573C501.464 87.6724 501.373 88.12 501.309 88.467C500.751 91.6151 501.467 93.9319 503.455 95.4176C505.75 96.9989 508.498 97.7817 511.277 97.6462C513.524 97.6134 515.764 97.3873 517.972 96.9703C520.5 96.538 523.665 95.783 527.467 94.7052ZM503.073 80.53H517.526C517.644 80.0277 517.735 79.6167 517.79 79.2514C518.068 77.9612 518.028 76.6221 517.671 75.3514C517.52 74.8432 517.268 74.3711 516.93 73.963C516.592 73.555 516.176 73.2195 515.707 72.9766C514.7 72.4591 513.581 72.2017 512.451 72.2277C511.564 72.2326 510.684 72.3743 509.84 72.6478C508.974 72.9269 508.157 73.3432 507.421 73.8809C506.684 74.394 506.022 75.009 505.456 75.7076C504.942 76.3346 504.5 77.0179 504.138 77.7443C503.727 78.6503 503.371 79.5806 503.073 80.53Z"
                fill="#F4A519" />
            <path
                d="M534.807 107.958L539.582 88.4669L541.983 77.2784C542.365 75.2629 542.741 73.1988 543.111 71.0859C543.481 68.973 543.918 66.3273 544.421 63.1489C547.932 63.2037 550.724 63.2311 552.798 63.2311C555.223 63.2311 558.009 63.2037 561.156 63.1489L560.11 68.1084C561.156 67.0879 562.259 66.1274 563.412 65.2313C564.289 64.5773 565.223 64.0055 566.204 63.5234C567.21 63.0171 568.273 62.6338 569.369 62.3817C570.436 62.1285 571.529 62.0028 572.626 62.0072C573.779 62.0202 574.926 62.1673 576.046 62.4456C575.488 65.6301 575.081 68.2575 574.827 70.3278L573.917 77.0866C572.502 76.6354 571.027 76.3984 569.542 76.3833C567.957 76.3558 566.379 76.6157 564.885 77.1505C563.52 77.6838 562.264 78.4673 561.184 79.4613C559.963 80.5715 558.941 81.8846 558.164 83.343C557.031 85.6887 556.185 88.1636 555.645 90.7138C554.82 94.081 554.029 97.9292 553.271 102.258C552.998 103.775 552.725 105.662 552.452 107.921C549.633 107.854 546.795 107.824 543.939 107.83C541.083 107.836 538.039 107.879 534.807 107.958Z"
                fill="#F4A519" />
        </g>
    </symbol>
    <symbol viewBox="0 0 25 24" id="whatsapp">
        <path
            d="M3.26967 17.2175L3.33885 17.0053L3.2271 16.8121C2.34464 15.2866 1.83942 13.5156 1.83942 11.625C1.83942 5.89505 6.48446 1.25 12.2144 1.25C17.9444 1.25 22.5894 5.89505 22.5894 11.625C22.5894 17.355 17.9444 22 12.2144 22C10.423 22 8.73898 21.5464 7.26951 20.7481L7.07955 20.6449L6.87424 20.7127L2.49673 22.1563C2.10757 22.2847 1.73773 21.9161 1.86475 21.5265L3.26967 17.2175Z" />
        <path
            d="M10.3827 7.73039L9.35944 6.70711C8.96892 6.31658 8.33575 6.31658 7.94523 6.70711L6.92248 7.72986C6.82671 7.82562 6.74831 7.93839 6.71878 8.07056C6.53178 8.90778 6.68306 11.1392 9.58984 13.875C12.5022 16.6161 14.5276 17.3744 15.523 17.2942C15.6924 17.2806 15.8404 17.1869 15.9606 17.0668L17.1327 15.8946C17.5233 15.5041 17.5233 14.8709 17.1327 14.4804L16.1094 13.4571C15.7189 13.0666 15.0858 13.0666 14.6952 13.4571L14.6309 13.5214C14.4083 13.744 14.0925 13.8514 13.7936 13.7526C13.2216 13.5636 12.35 13.1495 11.4648 12.375C10.5188 11.5472 10.1321 10.5874 10.0108 9.97322C9.95946 9.71303 10.0702 9.45714 10.2577 9.26961L10.3827 9.14461C10.7733 8.75408 10.7733 8.12092 10.3827 7.73039Z"
            stroke-linecap="round" stroke-linejoin="round" />
    </symbol>
    <symbol viewBox="0 0 25 24" id="vk">
        <path
            d="M5.08942 5.4375H0.776917C4.37692 18.0375 11.1519 19.4375 14.0894 18.5625V14.625C14.4644 14.625 15.4769 14.8125 16.5269 15.5625C17.5769 16.3125 18.8394 17.875 19.3394 18.5625H23.6519C23.5894 18 23.2394 16.6125 22.3394 15.5625C21.4394 14.5125 19.9644 13 19.3394 12.375C19.4644 12.1875 20.0519 11.2875 21.4019 9.1875C22.7519 7.0875 23.0894 5.8125 23.0894 5.4375H18.9644C18.9019 5.4375 18.5144 6 17.4644 8.25C16.4144 10.5 14.7769 11.5625 14.0894 11.8125V5.4375H8.65192C8.71442 5.625 8.95192 6.15 9.40192 6.75C9.85192 7.35 9.83942 8.625 9.77692 9.1875V13.125C9.52692 13.125 8.68942 12.6375 7.33942 10.6875C5.98942 8.7375 5.27692 6.375 5.08942 5.4375Z"
            stroke-linecap="round" stroke-linejoin="round" />
    </symbol>
    <symbol viewBox="0 0 25 24" id="telegram">
        <path
            d="M20.6063 3.0917C21.713 2.66608 22.8526 3.63204 22.6141 4.79346L19.6559 19.199C19.4376 20.262 18.1977 20.7486 17.3147 20.1179L14.4376 18.0628C13.5562 17.4332 12.3696 17.4429 11.4985 18.0867L10.5874 18.7601C9.76382 19.3689 8.58585 18.9915 8.26929 18.0175L6.9831 14.06C6.75117 13.3464 6.21098 12.7747 5.51163 12.5027L4.46531 12.0958C3.18766 11.5989 3.19102 9.7899 4.47051 9.29779L20.6063 3.0917Z" />
        <path
            d="M9.39034 11.5762L18.7769 5.8125L10.4329 13.6239C10.1282 13.9092 9.92041 14.2825 9.83857 14.6917L9.40192 16.875L8.51686 13.8405C8.26446 12.9752 8.62216 12.0479 9.39034 11.5762Z"
            stroke-linecap="round" stroke-linejoin="round" />
    </symbol>
    <symbol viewBox="0 0 20 20" id="feedback">
        <path
            d="M10.6908 2.71422C9.62234 2.71143 8.56832 2.96106 7.61461 3.44279C6.47177 4.01396 5.51052 4.89204 4.83853 5.97866C4.16654 7.06529 3.81034 8.31754 3.80985 9.59517C3.80706 10.6636 4.0567 11.7176 4.53842 12.6714L3.00033 17.2856L7.61461 15.7475C8.56832 16.2293 9.62234 16.4789 10.6908 16.4761C11.9684 16.4756 13.2207 16.1194 14.3073 15.4474C15.3939 14.7755 16.272 13.8142 16.8432 12.6714C17.3249 11.7176 17.5745 10.6636 17.5718 9.59517V9.19041C17.4787 7.50308 16.7665 5.90937 15.5715 4.71444C14.3766 3.5195 12.7829 2.8073 11.0956 2.71422H10.6908Z"
            stroke-width="2" stroke-linecap="round" stroke-linejoin="round" />
    </symbol>
    <symbol viewBox="0 0 21 20" id="search">
        <path
            d="M9.8964 15.8333C13.5783 15.8333 16.5631 12.8486 16.5631 9.16667C16.5631 5.48477 13.5783 2.5 9.8964 2.5C6.2145 2.5 3.22974 5.48477 3.22974 9.16667C3.22974 12.8486 6.2145 15.8333 9.8964 15.8333Z"
            stroke-width="2" stroke-linecap="round" stroke-linejoin="round" />
        <path d="M18.2297 17.5L14.6047 13.875" stroke-width="2" stroke-linecap="round" stroke-linejoin="round" />
    </symbol>
    <symbol viewBox="0 0 22 22" id="box">
        <path d="M15.125 8.61663L6.875 3.85913" stroke-width="2" stroke-linecap="round" stroke-linejoin="round" />
        <path
            d="M19.25 14.6664V7.33308C19.2497 7.01158 19.1648 6.69582 19.0039 6.41748C18.843 6.13914 18.6118 5.908 18.3333 5.74725L11.9167 2.08058C11.638 1.91967 11.3218 1.83496 11 1.83496C10.6782 1.83496 10.362 1.91967 10.0833 2.08058L3.66667 5.74725C3.38824 5.908 3.15698 6.13914 2.99609 6.41748C2.8352 6.69582 2.75033 7.01158 2.75 7.33308V14.6664C2.75033 14.9879 2.8352 15.3037 2.99609 15.582C3.15698 15.8604 3.38824 16.0915 3.66667 16.2522L10.0833 19.9189C10.362 20.0798 10.6782 20.1645 11 20.1645C11.3218 20.1645 11.638 20.0798 11.9167 19.9189L18.3333 16.2522C18.6118 16.0915 18.843 15.8604 19.0039 15.582C19.1648 15.3037 19.2497 14.9879 19.25 14.6664Z"
            stroke-width="2" stroke-linecap="round" stroke-linejoin="round" />
        <path d="M3.01562 6.4165L10.9998 10.9998L18.984 6.4165" stroke-width="2" stroke-linecap="round"
            stroke-linejoin="round" />
        <path d="M11 20.1667V11" stroke-width="2" stroke-linecap="round" stroke-linejoin="round" />
    </symbol>
    <symbol viewBox="0 0 22 22" id="cart">
        <path
            d="M7.33366 20.1667C7.83992 20.1667 8.25033 19.7563 8.25033 19.25C8.25033 18.7438 7.83992 18.3334 7.33366 18.3334C6.8274 18.3334 6.41699 18.7438 6.41699 19.25C6.41699 19.7563 6.8274 20.1667 7.33366 20.1667Z"
            stroke-width="2" stroke-linecap="round" stroke-linejoin="round" />
        <path
            d="M17.4167 20.1667C17.9229 20.1667 18.3333 19.7563 18.3333 19.25C18.3333 18.7438 17.9229 18.3334 17.4167 18.3334C16.9104 18.3334 16.5 18.7438 16.5 19.25C16.5 19.7563 16.9104 20.1667 17.4167 20.1667Z"
            stroke-width="2" stroke-linecap="round" stroke-linejoin="round" />
        <path
            d="M1.87891 1.87915H3.71224L6.15057 13.2642C6.24002 13.6811 6.47202 14.0538 6.80664 14.3182C7.14126 14.5825 7.55757 14.722 7.98391 14.7125H16.9489C17.3661 14.7118 17.7707 14.5688 18.0957 14.3072C18.4207 14.0455 18.6467 13.6808 18.7364 13.2733L20.2489 6.46248H4.69307"
            stroke-width="2" stroke-linecap="round" stroke-linejoin="round" />
    </symbol>
    <symbol viewBox="0 0 24 24" id="personal">
        <path
            d="M19 21V19C19 17.9391 18.5786 16.9217 17.8284 16.1716C17.0783 15.4214 16.0609 15 15 15H9C7.93913 15 6.92172 15.4214 6.17157 16.1716C5.42143 16.9217 5 17.9391 5 19V21"
            stroke-width="2" stroke-linecap="round" stroke-linejoin="round" />
        <path
            d="M12 11C14.2091 11 16 9.20914 16 7C16 4.79086 14.2091 3 12 3C9.79086 3 8 4.79086 8 7C8 9.20914 9.79086 11 12 11Z"
            stroke-width="2" stroke-linecap="round" stroke-linejoin="round" />
    </symbol>
    <symbol viewBox="0 0 24 24" id="eyeOpen">
        <path d="M2 12C2 12 5 5 12 5C19 5 22 12 22 12C22 12 19 19 12 19C5 19 2 12 2 12Z" stroke-width="2"
            stroke-linecap="round" stroke-linejoin="round" />
        <path
            d="M12 15C13.6569 15 15 13.6569 15 12C15 10.3431 13.6569 9 12 9C10.3431 9 9 10.3431 9 12C9 13.6569 10.3431 15 12 15Z"
            stroke-width="2" stroke-linecap="round" stroke-linejoin="round" />
    </symbol>
    <symbol viewBox="0 0 24 24" id="eyeClose">
        <path
            d="M9.88013 9.87988C9.58538 10.1545 9.34897 10.4857 9.185 10.8537C9.02104 11.2217 8.93287 11.619 8.92576 12.0218C8.91865 12.4246 8.99275 12.8247 9.14364 13.1983C9.29452 13.5718 9.5191 13.9112 9.80397 14.196C10.0888 14.4809 10.4282 14.7055 10.8017 14.8564C11.1753 15.0073 11.5754 15.0814 11.9782 15.0742C12.381 15.0671 12.7783 14.979 13.1463 14.815C13.5143 14.651 13.8455 14.4146 14.1201 14.1199"
            stroke-width="2" stroke-linecap="round" stroke-linejoin="round" />
        <path
            d="M10.73 5.08C11.1513 5.02751 11.5754 5.00079 12 5C19 5 22 12 22 12C21.5529 12.9571 20.9922 13.8569 20.33 14.68"
            stroke-width="2" stroke-linecap="round" stroke-linejoin="round" />
        <path
            d="M6.61 6.61035C4.62125 7.96498 3.02987 9.82561 2 12.0004C2 12.0004 5 19.0004 12 19.0004C13.9159 19.0055 15.7908 18.4455 17.39 17.3904"
            stroke-width="2" stroke-linecap="round" stroke-linejoin="round" />
        <path d="M2 2L22 22" stroke-width="2" stroke-linecap="round" stroke-linejoin="round" />
    </symbol>
</svg>