<svg width="667" height="236" viewBox="0 0 667 236" fill="none" xmlns="http://www.w3.org/2000/svg">
<g opacity="0.2">
<path d="M70.3113 120.85L71.9732 153.909C71.9732 153.909 75.5343 155.215 81.4102 155.333C86.2178 155.452 90.8472 153.909 90.8472 153.909L92.3311 125.657H82.8347" stroke="#F4A519" stroke-miterlimit="10" stroke-linecap="round" stroke-linejoin="round"/>
<path d="M71.4391 121.087C67.9373 121.087 67.6405 115.389 73.4571 115.389C79.6297 115.389 77.0776 118.119 82.538 115.152C82.538 115.152 85.3869 114.499 86.6333 116.813C86.6333 116.813 87.761 111.531 92.6873 114.083C97.6729 116.576 92.9247 121.74 92.6873 121.858H80.52C80.52 121.858 81.1729 124.707 77.9085 127.022C77.9085 127.022 80.6981 136.519 74.8815 136.578L74.1693 121.146H71.4391V121.087Z" stroke="#F4A519" stroke-miterlimit="10" stroke-linecap="round" stroke-linejoin="round"/>
<path d="M74.8816 140.436L75.1784 147.795" stroke="#F4A519" stroke-miterlimit="10" stroke-linecap="round" stroke-linejoin="round"/>
<path d="M24.0759 80.0762H25.7971C27.8151 80.0762 29.4177 81.6787 29.4177 83.6967V98.8315C29.4177 100.85 27.8151 102.452 25.7971 102.452H24.0759" stroke="#F4A519" stroke-miterlimit="10" stroke-linecap="round" stroke-linejoin="round"/>
<path d="M4.25222 68.502H24.0166V107.971C24.0166 107.971 19.4465 110.405 13.6299 110.464C8.58496 110.583 4.19287 107.971 4.19287 107.971V75.9804H23.9572" stroke="#F4A519" stroke-miterlimit="10" stroke-linecap="round" stroke-linejoin="round"/>
<path d="M9.89062 80.4316V95.4478" stroke="#F4A519" stroke-miterlimit="10" stroke-linecap="round" stroke-linejoin="round"/>
<path d="M9.89062 98.832V102.156" stroke="#F4A519" stroke-miterlimit="10" stroke-linecap="round" stroke-linejoin="round"/>
<path d="M90.254 40.1309C90.254 40.1309 93.2216 57.4024 87.1677 66.1272C82.2414 73.2495 88.9482 76.8107 88.8295 82.5679H72.2108C72.0921 76.87 78.7989 73.3089 73.8727 66.1272C67.8781 57.3431 70.7864 40.1309 70.7864 40.1309H90.254Z" stroke="#F4A519" stroke-miterlimit="10" stroke-linecap="round" stroke-linejoin="round"/>
<path d="M74.8818 44.7598C74.8818 44.7598 74.5256 58.1141 76.8997 62.5062" stroke="#F4A519" stroke-miterlimit="10" stroke-linecap="round" stroke-linejoin="round"/>
<path d="M88.2359 79.3027H77.0776" stroke="#F4A519" stroke-miterlimit="10" stroke-linecap="round" stroke-linejoin="round"/>
<path d="M218.254 112.131C218.254 112.131 221.222 129.402 215.168 138.127C210.241 145.25 216.948 148.811 216.83 154.568H200.211C200.092 148.87 206.799 145.309 201.873 138.127C195.878 129.343 198.786 112.131 198.786 112.131H218.254Z" stroke="#F4A519" stroke-miterlimit="10" stroke-linecap="round" stroke-linejoin="round"/>
<path d="M202.882 116.76C202.882 116.76 202.526 130.114 204.9 134.506" stroke="#F4A519" stroke-miterlimit="10" stroke-linecap="round" stroke-linejoin="round"/>
<path d="M216.236 151.303H205.078" stroke="#F4A519" stroke-miterlimit="10" stroke-linecap="round" stroke-linejoin="round"/>
<path d="M11.6119 149.102H36.4806C36.4806 149.102 45.977 176.7 30.9608 184.001H17.191C6.15148 178.6 8.34752 162.278 10.3062 154.028H25.7378" stroke="#F4A519" stroke-miterlimit="10" stroke-linecap="round" stroke-linejoin="round"/>
<path d="M14.1046 169.459C13.3924 166.136 13.6298 162.456 14.164 159.191" stroke="#F4A519" stroke-miterlimit="10" stroke-linecap="round" stroke-linejoin="round"/>
<path d="M18.4375 178.599C16.7756 177.234 15.7666 175.572 15.1731 173.732" stroke="#F4A519" stroke-miterlimit="10" stroke-linecap="round" stroke-linejoin="round"/>
<path d="M37.8459 153.969H47.1048C47.1048 153.969 51.4969 176.285 37.4897 177.176" stroke="#F4A519" stroke-miterlimit="10" stroke-linecap="round" stroke-linejoin="round"/>
<path d="M11.6121 149.102C11.6121 149.102 9.23797 141.861 13.8675 140.555C18.497 139.249 20.8117 141.623 21.4646 144.828C21.4646 144.828 23.2452 141.564 26.3315 142.632C28.8836 143.522 28.6462 146.253 28.6462 146.253C28.6462 146.253 30.3081 142.988 34.4628 144.116C36.8369 144.828 36.9556 147.44 36.4807 149.102" stroke="#F4A519" stroke-miterlimit="10" stroke-linecap="round" stroke-linejoin="round"/>
<path d="M201.836 53.8418H203.558C205.576 53.8418 207.178 55.4443 207.178 57.4623V72.5972C207.178 74.6152 205.576 76.2177 203.558 76.2177H201.836" stroke="#F4A519" stroke-miterlimit="10" stroke-linecap="round" stroke-linejoin="round"/>
<path d="M182.013 42.2676H201.836V81.737C201.836 81.737 197.266 84.1704 191.45 84.2298C186.405 84.3485 182.013 81.737 182.013 81.737V49.746H201.836" stroke="#F4A519" stroke-miterlimit="10" stroke-linecap="round" stroke-linejoin="round"/>
<path d="M187.651 54.1973V69.2134" stroke="#F4A519" stroke-miterlimit="10" stroke-linecap="round" stroke-linejoin="round"/>
<path d="M187.651 72.5371V75.8609" stroke="#F4A519" stroke-miterlimit="10" stroke-linecap="round" stroke-linejoin="round"/>
<path d="M329.836 125.842H331.558C333.576 125.842 335.178 127.444 335.178 129.462V144.597C335.178 146.615 333.576 148.218 331.558 148.218H329.836" stroke="#F4A519" stroke-miterlimit="10" stroke-linecap="round" stroke-linejoin="round"/>
<path d="M310.013 114.268H329.836V153.737C329.836 153.737 325.266 156.17 319.45 156.23C314.405 156.348 310.013 153.737 310.013 153.737V121.746H329.836" stroke="#F4A519" stroke-miterlimit="10" stroke-linecap="round" stroke-linejoin="round"/>
<path d="M315.651 126.197V141.213" stroke="#F4A519" stroke-miterlimit="10" stroke-linecap="round" stroke-linejoin="round"/>
<path d="M315.651 144.537V147.861" stroke="#F4A519" stroke-miterlimit="10" stroke-linecap="round" stroke-linejoin="round"/>
<path d="M143.79 90.4609C143.79 90.4609 154.592 109.276 140.585 119.9C135.006 124.173 147.292 129.752 145.452 132.661C144.977 133.432 127.884 133.432 127.349 132.661C125.391 129.871 137.855 124.173 132.216 119.9C118.209 109.276 129.011 90.4609 129.011 90.4609H143.79Z" stroke="#F4A519" stroke-miterlimit="10" stroke-linecap="round" stroke-linejoin="round"/>
<path d="M129.664 100.965C129.664 100.965 128.18 108.74 134.709 115.091" stroke="#F4A519" stroke-miterlimit="10" stroke-linecap="round" stroke-linejoin="round"/>
<path d="M132.869 130.049H144.68" stroke="#F4A519" stroke-miterlimit="10" stroke-linecap="round" stroke-linejoin="round"/>
<path d="M271.79 162.461C271.79 162.461 282.592 181.276 268.585 191.9C263.006 196.173 275.292 201.752 273.452 204.661C272.977 205.432 255.884 205.432 255.349 204.661C253.391 201.871 265.855 196.173 260.216 191.9C246.209 181.276 257.011 162.461 257.011 162.461H271.79Z" stroke="#F4A519" stroke-miterlimit="10" stroke-linecap="round" stroke-linejoin="round"/>
<path d="M257.664 172.965C257.664 172.965 256.18 180.74 262.709 187.091" stroke="#F4A519" stroke-miterlimit="10" stroke-linecap="round" stroke-linejoin="round"/>
<path d="M260.869 202.049H272.68" stroke="#F4A519" stroke-miterlimit="10" stroke-linecap="round" stroke-linejoin="round"/>
<path d="M119.871 8.91211H144.739C144.739 8.91211 154.236 36.511 139.22 43.8114H125.45C114.41 38.4103 116.606 22.0884 118.565 13.8384H133.997" stroke="#F4A519" stroke-miterlimit="10" stroke-linecap="round" stroke-linejoin="round"/>
<path d="M122.304 29.2699C121.592 25.9462 121.829 22.2663 122.363 19.002" stroke="#F4A519" stroke-miterlimit="10" stroke-linecap="round" stroke-linejoin="round"/>
<path d="M126.637 38.3513C124.975 36.9862 123.966 35.3243 123.373 33.4844" stroke="#F4A519" stroke-miterlimit="10" stroke-linecap="round" stroke-linejoin="round"/>
<path d="M146.045 13.7207H155.304C155.304 13.7207 159.696 36.0372 145.689 36.9275" stroke="#F4A519" stroke-miterlimit="10" stroke-linecap="round" stroke-linejoin="round"/>
<path d="M119.871 8.91207C119.871 8.91207 117.497 1.67107 122.126 0.365318C126.756 -0.940437 129.07 1.43366 129.723 4.63869C129.723 4.63869 131.504 1.37431 134.59 2.44265C137.142 3.33294 136.905 6.06315 136.905 6.06315C136.905 6.06315 138.567 2.79877 142.722 3.92647C145.155 4.6387 145.214 7.2502 144.74 8.91207" stroke="#F4A519" stroke-miterlimit="10" stroke-linecap="round" stroke-linejoin="round"/>
<path d="M247.871 80.9121H272.739C272.739 80.9121 282.236 108.511 267.22 115.811H253.45C242.41 110.41 244.606 94.0884 246.565 85.8384H261.997" stroke="#F4A519" stroke-miterlimit="10" stroke-linecap="round" stroke-linejoin="round"/>
<path d="M250.304 101.27C249.592 97.9462 249.829 94.2663 250.363 91.002" stroke="#F4A519" stroke-miterlimit="10" stroke-linecap="round" stroke-linejoin="round"/>
<path d="M254.637 110.351C252.975 108.986 251.966 107.324 251.373 105.484" stroke="#F4A519" stroke-miterlimit="10" stroke-linecap="round" stroke-linejoin="round"/>
<path d="M274.045 85.7207H283.304C283.304 85.7207 287.696 108.037 273.689 108.928" stroke="#F4A519" stroke-miterlimit="10" stroke-linecap="round" stroke-linejoin="round"/>
<path d="M247.871 80.9121C247.871 80.9121 245.497 73.6711 250.126 72.3653C254.756 71.0596 257.07 73.4337 257.723 76.6387C257.723 76.6387 259.504 73.3743 262.59 74.4427C265.142 75.3329 264.905 78.0632 264.905 78.0632C264.905 78.0632 266.567 74.7988 270.722 75.9265C273.155 76.6387 273.214 79.2502 272.74 80.9121" stroke="#F4A519" stroke-miterlimit="10" stroke-linecap="round" stroke-linejoin="round"/>
</g>
<g opacity="0.2">
<path d="M438.311 120.85L439.973 153.909C439.973 153.909 443.534 155.215 449.41 155.333C454.218 155.452 458.847 153.909 458.847 153.909L460.331 125.657H450.835" stroke="#F4A519" stroke-miterlimit="10" stroke-linecap="round" stroke-linejoin="round"/>
<path d="M439.439 121.087C435.937 121.087 435.641 115.389 441.457 115.389C447.63 115.389 445.078 118.119 450.538 115.152C450.538 115.152 453.387 114.499 454.633 116.813C454.633 116.813 455.761 111.531 460.687 114.083C465.673 116.576 460.925 121.74 460.687 121.858H448.52C448.52 121.858 449.173 124.707 445.908 127.022C445.908 127.022 448.698 136.519 442.882 136.578L442.169 121.146H439.439V121.087Z" stroke="#F4A519" stroke-miterlimit="10" stroke-linecap="round" stroke-linejoin="round"/>
<path d="M442.882 140.436L443.178 147.795" stroke="#F4A519" stroke-miterlimit="10" stroke-linecap="round" stroke-linejoin="round"/>
<path d="M392.076 80.0762H393.797C395.815 80.0762 397.418 81.6787 397.418 83.6967V98.8315C397.418 100.85 395.815 102.452 393.797 102.452H392.076" stroke="#F4A519" stroke-miterlimit="10" stroke-linecap="round" stroke-linejoin="round"/>
<path d="M372.252 68.502H392.017V107.971C392.017 107.971 387.446 110.405 381.63 110.464C376.585 110.583 372.193 107.971 372.193 107.971V75.9804H391.957" stroke="#F4A519" stroke-miterlimit="10" stroke-linecap="round" stroke-linejoin="round"/>
<path d="M377.891 80.4316V95.4478" stroke="#F4A519" stroke-miterlimit="10" stroke-linecap="round" stroke-linejoin="round"/>
<path d="M377.891 98.832V102.156" stroke="#F4A519" stroke-miterlimit="10" stroke-linecap="round" stroke-linejoin="round"/>
<path d="M458.254 40.1309C458.254 40.1309 461.222 57.4024 455.168 66.1272C450.241 73.2495 456.948 76.8107 456.83 82.5679H440.211C440.092 76.87 446.799 73.3089 441.873 66.1272C435.878 57.3431 438.786 40.1309 438.786 40.1309H458.254Z" stroke="#F4A519" stroke-miterlimit="10" stroke-linecap="round" stroke-linejoin="round"/>
<path d="M442.882 44.7598C442.882 44.7598 442.526 58.1141 444.9 62.5062" stroke="#F4A519" stroke-miterlimit="10" stroke-linecap="round" stroke-linejoin="round"/>
<path d="M456.236 79.3027H445.078" stroke="#F4A519" stroke-miterlimit="10" stroke-linecap="round" stroke-linejoin="round"/>
<path d="M586.254 112.131C586.254 112.131 589.222 129.402 583.168 138.127C578.241 145.25 584.948 148.811 584.83 154.568H568.211C568.092 148.87 574.799 145.309 569.873 138.127C563.878 129.343 566.786 112.131 566.786 112.131H586.254Z" stroke="#F4A519" stroke-miterlimit="10" stroke-linecap="round" stroke-linejoin="round"/>
<path d="M570.882 116.76C570.882 116.76 570.526 130.114 572.9 134.506" stroke="#F4A519" stroke-miterlimit="10" stroke-linecap="round" stroke-linejoin="round"/>
<path d="M584.236 151.303H573.078" stroke="#F4A519" stroke-miterlimit="10" stroke-linecap="round" stroke-linejoin="round"/>
<path d="M350.173 192.666C350.173 192.666 353.141 209.938 347.087 218.662C342.16 225.785 348.867 229.346 348.748 235.103H332.13C332.011 229.405 338.718 225.844 333.792 218.662C327.797 209.878 330.705 192.666 330.705 192.666H350.173Z" stroke="#F4A519" stroke-miterlimit="10" stroke-linecap="round" stroke-linejoin="round"/>
<path d="M334.801 197.355C334.801 197.355 334.445 210.71 336.819 215.102" stroke="#F4A519" stroke-miterlimit="10" stroke-linecap="round" stroke-linejoin="round"/>
<path d="M348.155 231.838H336.997" stroke="#F4A519" stroke-miterlimit="10" stroke-linecap="round" stroke-linejoin="round"/>
<path d="M379.612 149.102H404.481C404.481 149.102 413.977 176.7 398.961 184.001H385.191C374.151 178.6 376.348 162.278 378.306 154.028H393.738" stroke="#F4A519" stroke-miterlimit="10" stroke-linecap="round" stroke-linejoin="round"/>
<path d="M382.105 169.459C381.392 166.136 381.63 162.456 382.164 159.191" stroke="#F4A519" stroke-miterlimit="10" stroke-linecap="round" stroke-linejoin="round"/>
<path d="M386.437 178.599C384.776 177.234 383.767 175.572 383.173 173.732" stroke="#F4A519" stroke-miterlimit="10" stroke-linecap="round" stroke-linejoin="round"/>
<path d="M405.846 153.969H415.105C415.105 153.969 419.497 176.285 405.49 177.176" stroke="#F4A519" stroke-miterlimit="10" stroke-linecap="round" stroke-linejoin="round"/>
<path d="M379.612 149.102C379.612 149.102 377.238 141.861 381.867 140.555C386.497 139.249 388.812 141.623 389.465 144.828C389.465 144.828 391.245 141.564 394.331 142.632C396.884 143.522 396.646 146.253 396.646 146.253C396.646 146.253 398.308 142.988 402.463 144.116C404.837 144.828 404.956 147.44 404.481 149.102" stroke="#F4A519" stroke-miterlimit="10" stroke-linecap="round" stroke-linejoin="round"/>
<path d="M569.836 53.8418H571.558C573.576 53.8418 575.178 55.4443 575.178 57.4623V72.5972C575.178 74.6152 573.576 76.2177 571.558 76.2177H569.836" stroke="#F4A519" stroke-miterlimit="10" stroke-linecap="round" stroke-linejoin="round"/>
<path d="M550.013 42.2676H569.836V81.737C569.836 81.737 565.266 84.1704 559.45 84.2298C554.405 84.3485 550.013 81.737 550.013 81.737V49.746H569.836" stroke="#F4A519" stroke-miterlimit="10" stroke-linecap="round" stroke-linejoin="round"/>
<path d="M555.651 54.1973V69.2134" stroke="#F4A519" stroke-miterlimit="10" stroke-linecap="round" stroke-linejoin="round"/>
<path d="M555.651 72.5371V75.8609" stroke="#F4A519" stroke-miterlimit="10" stroke-linecap="round" stroke-linejoin="round"/>
<path d="M511.79 90.4609C511.79 90.4609 522.592 109.276 508.585 119.9C503.006 124.173 515.292 129.752 513.452 132.661C512.977 133.432 495.884 133.432 495.349 132.661C493.391 129.871 505.855 124.173 500.216 119.9C486.209 109.276 497.011 90.4609 497.011 90.4609H511.79Z" stroke="#F4A519" stroke-miterlimit="10" stroke-linecap="round" stroke-linejoin="round"/>
<path d="M497.664 100.965C497.664 100.965 496.18 108.74 502.709 115.091" stroke="#F4A519" stroke-miterlimit="10" stroke-linecap="round" stroke-linejoin="round"/>
<path d="M500.869 130.049H512.68" stroke="#F4A519" stroke-miterlimit="10" stroke-linecap="round" stroke-linejoin="round"/>
<path d="M639.79 162.461C639.79 162.461 650.592 181.276 636.585 191.9C631.006 196.173 643.292 201.752 641.452 204.661C640.977 205.432 623.884 205.432 623.349 204.661C621.391 201.871 633.855 196.173 628.216 191.9C614.209 181.276 625.011 162.461 625.011 162.461H639.79Z" stroke="#F4A519" stroke-miterlimit="10" stroke-linecap="round" stroke-linejoin="round"/>
<path d="M625.664 172.965C625.664 172.965 624.18 180.74 630.709 187.091" stroke="#F4A519" stroke-miterlimit="10" stroke-linecap="round" stroke-linejoin="round"/>
<path d="M628.869 202.049H640.68" stroke="#F4A519" stroke-miterlimit="10" stroke-linecap="round" stroke-linejoin="round"/>
<path d="M487.871 8.91211H512.739C512.739 8.91211 522.236 36.511 507.22 43.8114H493.45C482.41 38.4103 484.606 22.0884 486.565 13.8384H501.997" stroke="#F4A519" stroke-miterlimit="10" stroke-linecap="round" stroke-linejoin="round"/>
<path d="M490.304 29.2699C489.592 25.9462 489.829 22.2663 490.363 19.002" stroke="#F4A519" stroke-miterlimit="10" stroke-linecap="round" stroke-linejoin="round"/>
<path d="M494.637 38.3513C492.975 36.9862 491.966 35.3243 491.373 33.4844" stroke="#F4A519" stroke-miterlimit="10" stroke-linecap="round" stroke-linejoin="round"/>
<path d="M514.045 13.7207H523.304C523.304 13.7207 527.696 36.0372 513.689 36.9275" stroke="#F4A519" stroke-miterlimit="10" stroke-linecap="round" stroke-linejoin="round"/>
<path d="M487.871 8.91207C487.871 8.91207 485.497 1.67107 490.126 0.365318C494.756 -0.940437 497.07 1.43366 497.723 4.63869C497.723 4.63869 499.504 1.37431 502.59 2.44265C505.142 3.33294 504.905 6.06315 504.905 6.06315C504.905 6.06315 506.567 2.79877 510.722 3.92647C513.155 4.6387 513.214 7.2502 512.74 8.91207" stroke="#F4A519" stroke-miterlimit="10" stroke-linecap="round" stroke-linejoin="round"/>
<path d="M615.871 80.9121H640.739C640.739 80.9121 650.236 108.511 635.22 115.811H621.45C610.41 110.41 612.606 94.0884 614.565 85.8384H629.997" stroke="#F4A519" stroke-miterlimit="10" stroke-linecap="round" stroke-linejoin="round"/>
<path d="M618.304 101.27C617.592 97.9462 617.829 94.2663 618.363 91.002" stroke="#F4A519" stroke-miterlimit="10" stroke-linecap="round" stroke-linejoin="round"/>
<path d="M622.637 110.351C620.975 108.986 619.966 107.324 619.373 105.484" stroke="#F4A519" stroke-miterlimit="10" stroke-linecap="round" stroke-linejoin="round"/>
<path d="M642.045 85.7207H651.304C651.304 85.7207 655.696 108.037 641.689 108.928" stroke="#F4A519" stroke-miterlimit="10" stroke-linecap="round" stroke-linejoin="round"/>
<path d="M615.871 80.9121C615.871 80.9121 613.497 73.6711 618.126 72.3653C622.756 71.0596 625.07 73.4337 625.723 76.6387C625.723 76.6387 627.504 73.3743 630.59 74.4427C633.142 75.3329 632.905 78.0632 632.905 78.0632C632.905 78.0632 634.567 74.7988 638.722 75.9265C641.155 76.6387 641.214 79.2502 640.74 80.9121" stroke="#F4A519" stroke-miterlimit="10" stroke-linecap="round" stroke-linejoin="round"/>
</g>
</svg>
